<?xml version="1.0" encoding="utf-8"?>
<!-- Generator: Adobe Illustrator 27.1.1, SVG Export Plug-In . SVG Version: 6.00 Build 0)  -->
<svg version="1.1" id="Glyph" xmlns="http://www.w3.org/2000/svg" xmlns:xlink="http://www.w3.org/1999/xlink" x="0px" y="0px"
	 viewBox="0 0 48 48" enable-background="new 0 0 48 48" xml:space="preserve">
<g>
	<path d="M18.64941,16.75h-1.29907c0.20959,0.28448,0.42639,0.54468,0.64948,0.78082
		C18.22296,17.29468,18.43982,17.03448,18.64941,16.75z"/>
	<path d="M12.25,24.6748c0,0,0,2.31305,0,2.32513c0,0.59821,0.72131,0.96014,1.2002,0.59967L17.25,24.75H23
		c2.06738,0,3.75-1.68213,3.75-3.75v-8c0-2.06787-1.68262-3.75-3.75-3.75H13c-2.06787,0-3.75,1.68213-3.75,3.75v8
		C9.25,22.81104,10.54053,24.32617,12.25,24.6748z M15,15.25h2.25V14c0-0.41406,0.33594-0.75,0.75-0.75s0.75,0.33594,0.75,0.75v1.25
		H21c0.41406,0,0.75,0.33594,0.75,0.75s-0.33594,0.75-0.75,0.75h-0.5686c-0.39453,0.69141-0.84668,1.2868-1.31647,1.78821
		c0.57489,0.43762,1.05341,0.70551,1.22638,0.79382c0.36914,0.18896,0.51514,0.64062,0.32666,1.00928
		c-0.18671,0.36517-0.64337,0.51288-1.00928,0.32666c-0.30322-0.15509-0.93768-0.51996-1.65875-1.09534
		c-0.72101,0.57538-1.35541,0.94025-1.65863,1.09534c-0.35809,0.18225-0.82568,0.03259-1.00934-0.32678
		c-0.18835-0.36865-0.04236-0.82025,0.32672-1.00916c0.17279-0.08832,0.65125-0.3562,1.22614-0.79388
		c-0.46973-0.50146-0.92188-1.09674-1.31628-1.78815H15c-0.41406,0-0.75-0.33594-0.75-0.75S14.58594,15.25,15,15.25z"/>
	<path d="M29.45837,28.25h1.08325C30.23865,27.52295,30,26.9502,30,26.9502L29.45837,28.25z"/>
	<path d="M35,20.25h-6.75V21c0,2.89996-2.35999,5.25-5.25,5.25h-1.75V32c0,2.07001,1.67999,3.75,3.75,3.75h5.75
		c0,0,3.78998,2.83997,3.79999,2.84998C35.03998,38.96997,35.75,38.60999,35.75,38v-2.33002c1.71002-0.34003,3-1.85999,3-3.66998v-8
		C38.75,21.92999,37.07001,20.25,35,20.25z M32.78809,31.69238c-0.37292,0.15491-0.82941-0.04187-0.98047-0.4043
		c-0.00037-0.00085-0.29248-0.70184-0.64093-1.53809h-2.33337l-0.64093,1.53809c-0.15918,0.38281-0.60352,0.56152-0.98047,0.4043
		c-0.38281-0.15918-0.56348-0.59863-0.4043-0.98047l2.5-6.00049c0.23242-0.55859,1.15234-0.55859,1.38477,0l2.5,6.00049
		C33.35156,31.09375,33.1709,31.5332,32.78809,31.69238z"/>
	<path d="M30,11.75h3c0.68945,0,1.25,0.56055,1.25,1.25v2.18945l-0.71973-0.71973c-0.29297-0.29297-0.76758-0.29297-1.06055,0
		s-0.29297,0.76758,0,1.06055c0,0,2,2,2.00008,2.00008c0.29184,0.29175,0.76882,0.29156,1.06046-0.00008l2-2
		c0.29297-0.29297,0.29297-0.76758,0-1.06055s-0.76758-0.29297-1.06055,0L35.75,15.18945V13c0-1.5166-1.2334-2.75-2.75-2.75h-3
		c-0.41406,0-0.75,0.33594-0.75,0.75S29.58594,11.75,30,11.75z"/>
	<path d="M18,36.25h-3c-0.68945,0-1.25-0.56055-1.25-1.25v-2.18945c0,0,0.71586,0.71586,0.71971,0.71971
		c0.28386,0.28387,0.7784,0.28218,1.06056,0.00002c0.29297-0.29297,0.29297-0.76758,0-1.06055l-2-2
		c-0.29297-0.29297-0.76758-0.29297-1.06055,0l-2,2c-0.29297,0.29297-0.29297,0.76758,0,1.06055s0.76758,0.29297,1.06055,0
		L12.25,32.81055V35c0,1.5166,1.2334,2.75,2.75,2.75h3c0.41406,0,0.75-0.33594,0.75-0.75S18.41406,36.25,18,36.25z"/>
</g>
</svg>
